<svg width="95" height="75" viewBox="0 0 95 75" fill="none" xmlns="http://www.w3.org/2000/svg">
<path d="M49.4724 4.59191C58.7932 4.59191 66.3491 12.13 66.3491 21.4286C66.3491 30.7273 58.7932 38.2654 49.4724 38.2654C40.1517 38.2654 32.5957 30.7273 32.5957 21.4286C32.5957 12.13 40.1517 4.59191 49.4724 4.59191Z" fill="#F8D33A"/>
<path d="M49.4722 9.18367C56.2509 9.18367 61.7462 14.6659 61.7462 21.4286C61.7462 28.1912 56.2509 33.6735 49.4722 33.6735C42.6935 33.6735 37.1982 28.1912 37.1982 21.4286C37.1982 14.6659 42.6935 9.18367 49.4722 9.18367Z" fill="url(#paint0_linear_26007_2895)"/>
<path fill-rule="evenodd" clip-rule="evenodd" d="M70.9519 24.4897H9.58203V62.7551H70.9519V24.4897Z" fill="url(#paint1_linear_26007_2895)"/>
<path d="M70.9521 50.5102H49.4727V35.2041H70.9521V50.5102Z" fill="url(#paint2_linear_26007_2895)"/>
<path d="M70.9521 53.5715H49.4727V48.9796H70.9521V53.5715Z" fill="#E6E8EA"/>
<path fill-rule="evenodd" clip-rule="evenodd" d="M9.58243 73.4693H18.7879H27.9934L37.1989 64.2856V55.102V45.9183L27.9934 36.7346H18.7879H9.58243L0.376953 45.9183V55.102V64.2856L9.58243 73.4693Z" fill="#E24343"/>
<path d="M24.9244 51.1224L20.9352 55.1021L24.9244 59.0818L22.7765 61.2245L18.7874 57.2448L14.7982 61.2245L12.6504 59.0818L16.6395 55.1021L12.6504 51.1224L14.7982 48.9796L18.7874 52.9593L22.7765 48.9796L24.9244 51.1224Z" fill="white"/>
<path d="M27.9934 36.7346L37.1989 45.9183V64.2856L27.9934 73.4693H9.58243L0.376953 64.2856V45.9183L9.58243 36.7346H27.9934ZM4.21257 47.5027V62.7012L11.1706 69.6428H26.4052L33.3633 62.7012V47.5027L26.4052 40.5612H11.1706L4.21257 47.5027Z" fill="#E6E8EA"/>
<path d="M15.7188 14.9895L21.5383 20.7952L27.3579 14.9895L21.5383 9.18372L15.7188 14.9895Z" fill="#F0B90B"/>
<path d="M82 12.2245L85.2055 9L88.411 12.2245L85.2055 15.449L82 12.2245Z" fill="#E6E8EA"/>
<path d="M71 70.1632L74.2055 66.9387L77.411 70.1632L74.2055 73.3877L71 70.1632Z" fill="#E6E8EA"/>
<path d="M79.0137 62.1021L85.4246 55.6531L91.8356 62.1021L85.4246 68.551L79.0137 62.1021Z" fill="#E6E8EA"/>
<defs>
<linearGradient id="paint0_linear_26007_2895" x1="61.7462" y1="21.4286" x2="61.7462" y2="-3.0613" gradientUnits="userSpaceOnUse">
<stop stop-color="#F0B90B"/>
<stop offset="1" stop-color="#F8D33A"/>
</linearGradient>
<linearGradient id="paint1_linear_26007_2895" x1="70.9519" y1="24.4897" x2="9.58203" y2="24.4897" gradientUnits="userSpaceOnUse">
<stop stop-color="#929AA5"/>
<stop offset="1" stop-color="#76808F"/>
</linearGradient>
<linearGradient id="paint2_linear_26007_2895" x1="49.4727" y1="42.8572" x2="70.9521" y2="42.8572" gradientUnits="userSpaceOnUse">
<stop stop-color="#F0B90B"/>
<stop offset="1" stop-color="#F8D33A"/>
</linearGradient>
</defs>
</svg>
