<svg width="47" height="47" viewBox="0 0 47 47" fill="none" xmlns="http://www.w3.org/2000/svg">
<g clip-path="url(#clip0_26004_2432)">
<path d="M45.0413 23.5C45.0413 35.3972 35.3968 45.0417 23.4997 45.0417C11.6025 45.0417 1.95801 35.3972 1.95801 23.5C1.95801 11.6029 11.6025 1.95837 23.4997 1.95837C35.3968 1.95837 45.0413 11.6029 45.0413 23.5Z" fill="#D9D9D9"/>
<path d="M45.0413 23.5C45.0413 35.3972 35.3968 45.0417 23.4997 45.0417C11.6025 45.0417 1.95801 35.3972 1.95801 23.5C1.95801 11.6029 11.6025 1.95837 23.4997 1.95837C35.3968 1.95837 45.0413 11.6029 45.0413 23.5Z" fill="url(#paint0_linear_26004_2432)"/>
<path d="M14.4092 26.1392L17.0458 23.5L14.4092 20.8379L11.7497 23.5L14.4092 26.1392Z" fill="#E6E8EA"/>
<path d="M28.0277 21.5953L23.4882 17.0513L18.9487 21.6182L16.2892 18.9561L23.4882 11.75L30.6873 18.9331L28.0277 21.5953Z" fill="#E6E8EA"/>
<path d="M29.9306 23.5L32.5672 20.8379L35.2497 23.5L32.5902 26.1622L29.9306 23.5Z" fill="#E6E8EA"/>
<path d="M18.9487 25.3819L23.4882 29.9487L28.0277 25.3819L30.6873 28.044L23.4882 35.25L16.2892 28.044L18.9487 25.3819Z" fill="#E6E8EA"/>
<path d="M26.1478 23.4771L23.4882 26.1392L20.8287 23.5L23.4882 20.8379L26.1478 23.4771Z" fill="#E6E8EA"/>
<path d="M45.0413 23.5C45.0413 35.3972 35.3968 45.0417 23.4997 45.0417C11.6025 45.0417 1.95801 35.3972 1.95801 23.5C1.95801 11.6029 11.6025 1.95837 23.4997 1.95837C35.3968 1.95837 45.0413 11.6029 45.0413 23.5ZM7.11637 23.5C7.11637 32.5483 14.4514 39.8833 23.4997 39.8833C32.5479 39.8833 39.883 32.5483 39.883 23.5C39.883 14.4518 32.5479 7.11674 23.4997 7.11674C14.4514 7.11674 7.11637 14.4518 7.11637 23.5Z" fill="#E6E8EA"/>
<path d="M47.029 44.2603L41.4517 38.683C42.4779 37.134 43.083 35.2833 43.083 33.2917C43.083 27.8926 38.6905 23.5 33.2913 23.5C27.8922 23.5 23.4997 27.8926 23.4997 33.2917C23.4997 38.6908 27.8922 43.0834 33.2913 43.0834C35.283 43.0834 37.1336 42.4782 38.6826 41.4521L44.26 47.0294L47.029 44.2603Z" fill="#F4C61E"/>
<path d="M2 4L4 2L6 4L4 6L2 4Z" fill="#E6E8EA"/>
<path d="M44 36.5H45.5V35H44V36.5Z" fill="#E6E8EA"/>
</g>
<defs>
<linearGradient id="paint0_linear_26004_2432" x1="24.4935" y1="1.95837" x2="24.4935" y2="47.0294" gradientUnits="userSpaceOnUse">
<stop stop-color="#929AA5"/>
<stop offset="1" stop-color="#76808F"/>
</linearGradient>
<clipPath id="clip0_26004_2432">
<rect width="47" height="47" fill="white"/>
</clipPath>
</defs>
</svg>
