<svg width="48" height="48" viewBox="0 0 48 48" fill="none" xmlns="http://www.w3.org/2000/svg">
<g clip-path="url(#clip0_26005_2582)">
<path d="M48 20V48H0V20H48ZM48 16V10C48 8.4087 47.3679 6.88258 46.2426 5.75736C45.1174 4.63214 43.5913 4 42 4H36V0H32V4H16V0H12V4H6C4.4087 4 2.88258 4.63214 1.75736 5.75736C0.632141 6.88258 0 8.4087 0 10L0 16H48ZM36 28H32V32H36V28ZM26 28H22V32H26V28ZM16 28H12V32H16V28ZM36 36H32V40H36V36ZM26 36H22V40H26V36ZM16 36H12V40H16V36Z" fill="url(#paint0_linear_26005_2582)"/>
<path d="M16 28H12V32H16V28Z" fill="white"/>
<path d="M16 36H12V40H16V36Z" fill="white"/>
<path d="M26 28H22V32H26V28Z" fill="white"/>
<path d="M26 36H22V40H26V36Z" fill="white"/>
<path fill-rule="evenodd" clip-rule="evenodd" d="M48 36C48 42.6171 42.6154 48 36 48C29.3846 48 24 42.6171 24 36C24 29.3829 29.3846 24 36 24C42.6154 24 48 29.3829 48 36ZM37.7143 35.2903L40.6406 38.2166L38.2166 40.6406L34.2857 36.7097V30.8571H37.7143V35.2903Z" fill="#858E9B"/>
<path d="M40.6406 38.2166L37.7143 35.2903V30.8571H34.2857V36.7097L38.2166 40.6406L40.6406 38.2166Z" fill="#F4C61E"/>
<path d="M48 36C48 42.6274 42.6274 48 36 48C29.3726 48 24 42.6274 24 36C24 29.3726 29.3726 24 36 24C42.6274 24 48 29.3726 48 36ZM27.2686 36C27.2686 40.8222 31.1778 44.7314 36 44.7314C40.8222 44.7314 44.7314 40.8222 44.7314 36C44.7314 31.1778 40.8222 27.2686 36 27.2686C31.1778 27.2686 27.2686 31.1778 27.2686 36Z" fill="#E6E8EA"/>
</g>
<defs>
<linearGradient id="paint0_linear_26005_2582" x1="24" y1="0" x2="24" y2="48" gradientUnits="userSpaceOnUse">
<stop stop-color="#929AA5"/>
<stop offset="1" stop-color="#76808F"/>
</linearGradient>
<clipPath id="clip0_26005_2582">
<rect width="48" height="48" fill="white"/>
</clipPath>
</defs>
</svg>
