<svg width="173" height="172" viewBox="0 0 173 172" fill="none" xmlns="http://www.w3.org/2000/svg">
<path d="M138.903 119.258L86.0996 172L33.2959 119.258L52.8037 99.7734L86.0996 133.199L119.396 99.7734L138.903 119.258ZM172.367 86L152.86 105.484L133.354 86L152.692 66.5156L172.367 86ZM38.8457 86L19.5068 105.316L0 86L19.5068 66.5156L38.8457 86ZM105.607 85.832L86.0996 105.316L66.5928 86L86.0996 66.5156L105.607 85.832ZM138.903 52.5742L119.396 72.0586L86.0996 38.8008L52.8037 72.2266L33.2959 52.7422L86.0996 0L138.903 52.5742Z" fill="#F0B90B"/>
</svg>
