<svg width="95" height="75" viewBox="0 0 95 75" fill="none" xmlns="http://www.w3.org/2000/svg">
<g clip-path="url(#clip0_26007_2945)">
<path d="M49.4724 4.59191C58.7932 4.59191 66.3491 12.13 66.3491 21.4286C66.3491 30.7273 58.7932 38.2654 49.4724 38.2654C40.1517 38.2654 32.5957 30.7273 32.5957 21.4286C32.5957 12.13 40.1517 4.59191 49.4724 4.59191Z" fill="#F8D33A"/>
<path d="M49.4722 9.18367C56.2509 9.18367 61.7462 14.6659 61.7462 21.4286C61.7462 28.1912 56.2509 33.6735 49.4722 33.6735C42.6935 33.6735 37.1982 28.1912 37.1982 21.4286C37.1982 14.6659 42.6935 9.18367 49.4722 9.18367Z" fill="url(#paint0_linear_26007_2945)"/>
<path fill-rule="evenodd" clip-rule="evenodd" d="M70.9519 24.4897H9.58203V62.7551H70.9519V24.4897Z" fill="url(#paint1_linear_26007_2945)"/>
<path d="M70.9521 50.5102H49.4727V35.2041H70.9521V50.5102Z" fill="url(#paint2_linear_26007_2945)"/>
<path d="M70.9521 53.5715H49.4727V48.9796H70.9521V53.5715Z" fill="#E6E8EA"/>
<path fill-rule="evenodd" clip-rule="evenodd" d="M37.1989 55.102C37.1989 65.2303 28.9376 73.4693 18.7879 73.4693C8.63822 73.4693 0.376953 65.2303 0.376953 55.102C0.376953 44.9737 8.63822 36.7346 18.7879 36.7346C28.9376 36.7346 37.1989 44.9737 37.1989 55.102ZM21.418 54.0157L25.9077 58.4947L22.1887 62.2049L16.1578 56.1883V47.2302H21.418V54.0157Z" fill="#F0BA0C"/>
<path d="M25.9077 58.4947L21.418 54.0157V47.2302H16.1578V56.1883L22.1887 62.2049L25.9077 58.4947Z" fill="#F0BA0C"/>
<path d="M20.3215 47.449V54.9167L25.0171 59.6012L21.7628 62.8478L15.7188 56.818V47.449H20.3215Z" fill="white"/>
<path d="M37.1989 55.102C37.1989 65.246 28.956 73.4693 18.7879 73.4693C8.61982 73.4693 0.376953 65.246 0.376953 55.102C0.376953 44.958 8.61982 36.7346 18.7879 36.7346C28.956 36.7346 37.1989 44.958 37.1989 55.102ZM5.39182 55.102C5.39182 62.4829 11.3895 68.4663 18.7879 68.4663C26.1864 68.4663 32.184 62.4829 32.184 55.102C32.184 47.721 26.1864 41.7376 18.7879 41.7376C11.3895 41.7376 5.39182 47.721 5.39182 55.102Z" fill="#E6E8EA"/>
<path d="M82 21.3266L85.0685 18.2654L88.137 21.3266L85.0685 24.3878L82 21.3266Z" fill="#E6E8EA"/>
<path d="M75.5547 70.4081L78.6232 67.3469L81.6917 70.4081L78.6232 73.4694L75.5547 70.4081Z" fill="#E6E8EA"/>
<path d="M83.2256 62.7551L89.3626 56.6327L95.4996 62.7551L89.3626 68.8776L83.2256 62.7551Z" fill="#E6E8EA"/>
<path d="M15.7188 14.9895L21.5383 20.7952L27.3579 14.9895L21.5383 9.18372L15.7188 14.9895Z" fill="#F0B90B"/>
</g>
<defs>
<linearGradient id="paint0_linear_26007_2945" x1="61.7462" y1="21.4286" x2="61.7462" y2="-3.0613" gradientUnits="userSpaceOnUse">
<stop stop-color="#F0B90B"/>
<stop offset="1" stop-color="#F8D33A"/>
</linearGradient>
<linearGradient id="paint1_linear_26007_2945" x1="70.9519" y1="24.4897" x2="9.58203" y2="24.4897" gradientUnits="userSpaceOnUse">
<stop stop-color="#929AA5"/>
<stop offset="1" stop-color="#76808F"/>
</linearGradient>
<linearGradient id="paint2_linear_26007_2945" x1="49.4727" y1="42.8572" x2="70.9521" y2="42.8572" gradientUnits="userSpaceOnUse">
<stop stop-color="#F0B90B"/>
<stop offset="1" stop-color="#F8D33A"/>
</linearGradient>
<clipPath id="clip0_26007_2945">
<rect width="95" height="75" fill="white"/>
</clipPath>
</defs>
</svg>
