<svg width="95" height="75" viewBox="0 0 95 75" fill="none" xmlns="http://www.w3.org/2000/svg">
<g clip-path="url(#clip0_26007_2839)">
<path d="M52.9182 0.836765C62.6551 0.836765 70.5484 8.77686 70.5484 18.5715C70.5484 28.3661 62.6551 36.3062 52.9182 36.3062C43.1814 36.3062 35.2881 28.3661 35.2881 18.5715C35.2881 8.77686 43.1814 0.836765 52.9182 0.836765Z" fill="#F8D33A"/>
<path d="M52.9176 5.67344C59.999 5.67344 65.7395 11.4481 65.7395 18.5714C65.7395 25.6947 59.999 31.4694 52.9176 31.4694C45.8363 31.4694 40.0957 25.6947 40.0957 18.5714C40.0957 11.4481 45.8363 5.67344 52.9176 5.67344Z" fill="url(#paint0_linear_26007_2839)"/>
<path fill-rule="evenodd" clip-rule="evenodd" d="M75.3557 21.7959H11.2461V62.102H75.3557V21.7959Z" fill="url(#paint1_linear_26007_2839)"/>
<path d="M20.863 33.0816C32.3702 33.0816 41.6986 42.4654 41.6986 54.0408C41.6986 65.6163 32.3702 75 20.863 75C9.35577 75 0.0273438 65.6163 0.0273438 54.0408C0.0273438 42.4654 9.35577 33.0816 20.863 33.0816Z" fill="#E6E8EA"/>
<path d="M20.8633 37.9184C29.715 37.9184 36.8907 45.1367 36.8907 54.0409C36.8907 62.9451 29.715 70.1633 20.8633 70.1633C12.0116 70.1633 4.83594 62.9451 4.83594 54.0409C4.83594 45.1367 12.0116 37.9184 20.8633 37.9184Z" fill="#42AD3F"/>
<path d="M29.2436 50.4467L18.9862 60.765L12.5752 54.316L14.8189 52.059L18.9862 56.2509L26.9999 48.1897L29.2436 50.4467Z" fill="white"/>
<path d="M83 23.5306L86.2055 20.3062L89.411 23.5306L86.2055 26.7551L83 23.5306Z" fill="#E6E8EA"/>
<path d="M74 70.1632L77.2055 66.9387L80.411 70.1632L77.2055 73.3877L74 70.1632Z" fill="#E6E8EA"/>
<path d="M82.0137 62.1021L88.4246 55.6531L94.8356 62.1021L88.4246 68.551L82.0137 62.1021Z" fill="#E6E8EA"/>
<path d="M17.6572 11.7889L23.7366 17.9043L29.8159 11.7889L23.7366 5.67346L17.6572 11.7889Z" fill="#F0B90B"/>
<path d="M75.3563 49.2041H52.918V33.0817H75.3563V49.2041Z" fill="url(#paint2_linear_26007_2839)"/>
<path d="M75.3563 52.4285H52.918V47.5918H75.3563V52.4285Z" fill="#E6E8EA"/>
</g>
<defs>
<linearGradient id="paint0_linear_26007_2839" x1="65.7395" y1="18.5714" x2="65.7395" y2="-7.22459" gradientUnits="userSpaceOnUse">
<stop stop-color="#F0B90B"/>
<stop offset="1" stop-color="#F8D33A"/>
</linearGradient>
<linearGradient id="paint1_linear_26007_2839" x1="75.3557" y1="21.7959" x2="11.2461" y2="21.7959" gradientUnits="userSpaceOnUse">
<stop stop-color="#929AA5"/>
<stop offset="1" stop-color="#76808F"/>
</linearGradient>
<linearGradient id="paint2_linear_26007_2839" x1="52.918" y1="41.1429" x2="75.3563" y2="41.1429" gradientUnits="userSpaceOnUse">
<stop stop-color="#F0B90B"/>
<stop offset="1" stop-color="#F8D33A"/>
</linearGradient>
<clipPath id="clip0_26007_2839">
<rect width="95" height="75" fill="white"/>
</clipPath>
</defs>
</svg>
